<svg preserveAspectRatio="none" overflow="visible" style="display: block;" width="192.3" height="207.428" viewBox="0 0 192.3 207.428" fill="none" xmlns="http://www.w3.org/2000/svg">
<g id="Group 17">
<path id="Vector" d="M189.418 158.674C180.528 163.059 173.843 171.11 169.051 179.556C175.041 137.456 186.614 88.1323 159.802 50.5732C128.413 10.2466 61.0697 15.2904 31.5376 55.3055C15.7299 75.0409 7.67735 99.8719 8.89433 125.128C8.47501 167.779 55.6186 217.702 97.3709 187.367C126.376 165.743 110.178 128.088 84.7913 112.153C84.4344 111.922 84.0184 111.799 83.5932 111.799C83.1681 111.799 82.752 111.922 82.3952 112.153C82.2765 112.236 82.1796 112.346 82.1127 112.475C82.0458 112.603 82.0109 112.745 82.0109 112.89C82.0109 113.035 82.0458 113.177 82.1127 113.306C82.1796 113.434 82.2765 113.544 82.3952 113.627C142.298 158.111 82.0118 220.781 36.7851 170.103C10.4278 137.624 18.6705 86.4311 48.2146 58.7799C75.5662 31.4881 128.832 34.5192 149.858 67.9091C168.943 102.449 161.479 145.483 163.036 183.737C158.363 174.443 152.199 165.977 144.79 158.674C144.594 158.488 144.349 158.362 144.084 158.309C143.819 158.256 143.545 158.279 143.292 158.374C143.157 158.423 143.036 158.502 142.937 158.606C142.838 158.71 142.764 158.836 142.723 158.973C142.681 159.11 142.671 159.256 142.695 159.397C142.72 159.539 142.776 159.672 142.861 159.788C152.446 173.218 158.58 189.212 162.425 205.159C162.574 205.779 162.919 206.335 163.41 206.743C163.9 207.152 164.51 207.391 165.147 207.424C165.784 207.458 166.415 207.285 166.946 206.93C167.477 206.576 167.879 206.06 168.092 205.458C173.711 189.788 181.918 173.386 191.886 161.513C192.166 161.173 192.313 160.742 192.3 160.302C192.286 159.861 192.114 159.44 191.814 159.117C191.509 158.804 191.115 158.594 190.686 158.514C190.257 158.435 189.814 158.491 189.418 158.674Z" fill="#9487FF"/>
<path id="Vector_2" d="M160.136 29.1478C156.248 26.2767 152.62 23.0696 149.293 19.5633C149.146 19.4104 149.054 19.2129 149.031 19.0019C149.008 18.7908 149.056 18.5782 149.167 18.3972C149.278 18.2163 149.446 18.0773 149.644 18.0022C149.843 17.927 150.061 17.9198 150.264 17.9819C152.732 18.8011 155.009 20.1121 156.957 21.8355C158.905 23.559 160.484 25.6593 161.597 28.0096C161.68 28.2041 161.696 28.4204 161.643 28.6249C161.59 28.8295 161.471 29.0107 161.304 29.1405C161.137 29.2704 160.932 29.3415 160.721 29.3428C160.51 29.3441 160.304 29.2755 160.136 29.1478Z" fill="white"/>
<path id="Vector_3" d="M138.164 12.8169C115.521 5.22124 89.643 3.40019 64.8791 11.6189C64.364 11.7866 64.1243 11.0677 64.5556 10.7443C85.7852 -5.01019 118.648 -2.43437 138.596 11.9423C138.712 11.9995 138.8 12.1005 138.842 12.2229C138.883 12.3454 138.874 12.4793 138.817 12.5953C138.76 12.7113 138.659 12.7998 138.537 12.8413C138.414 12.8829 138.28 12.8741 138.164 12.8169Z" fill="white"/>
<path id="Vector_4" d="M0.817403 150.392C0.937493 150.324 1.0731 150.288 1.21114 150.288C1.34918 150.287 1.48498 150.323 1.60542 150.39C1.72586 150.458 1.82686 150.555 1.89868 150.673C1.97051 150.791 2.01075 150.925 2.01546 151.063C3.57294 175.539 23.3888 196.505 36.9388 200.124C37.0297 200.159 37.1119 200.214 37.1802 200.284C37.2485 200.354 37.3013 200.437 37.3352 200.529C37.3691 200.62 37.3834 200.718 37.377 200.815C37.3706 200.913 37.3438 201.008 37.2982 201.094C37.2089 201.265 37.0721 201.407 36.9043 201.503C36.7364 201.598 36.5447 201.644 36.3518 201.633C17.1829 202.472 -0.788 175.276 0.0266799 151.686C0.0373735 151.417 0.119544 151.155 0.264807 150.927C0.41007 150.7 0.613204 150.515 0.853343 150.392H0.817403Z" fill="white"/>
</g>
</svg>
